<svg xmlns="http://www.w3.org/2000/svg" viewBox="0 0 1600 420" role="img" aria-labelledby="title desc"><title id="title">Face Hello wordmark</title><desc id="desc">Face Hello logo with wordmark.</desc><defs><linearGradient id="bg" x1="0" y1="0" x2="336" y2="336" gradientUnits="userSpaceOnUse"><stop offset="0" stop-color="#0067C0"/><stop offset=".58" stop-color="#0078D7"/><stop offset="1" stop-color="#00BFA5"/></linearGradient><radialGradient id="glow" cx="78%" cy="15%" r="55%"><stop offset="0" stop-color="#5046FF" stop-opacity=".28"/><stop offset="1" stop-color="#5046FF" stop-opacity="0"/></radialGradient></defs><rect width="1600" height="420" fill="#ffffff"/><g transform="translate(42,42) scale(.328125)"><rect width="1024" height="1024" rx="232" fill="url(#bg)"/><rect width="1024" height="1024" rx="232" fill="url(#glow)"/><g fill="none" stroke="#fff" stroke-opacity=".42" stroke-width="44" stroke-linecap="round" stroke-linejoin="round"><path d="M252 250h126M252 250v126M772 250H646M772 250v126M252 750h126M252 750V624M772 750H646M772 750V624"/></g><circle cx="512" cy="472" r="172" fill="none" stroke="#fff" stroke-width="56"/><rect x="422" y="438" width="52" height="52" rx="24" fill="#fff"/><rect x="550" y="438" width="52" height="52" rx="24" fill="#fff"/><path d="M436 544c36 46 116 46 152 0" fill="none" stroke="#fff" stroke-width="34" stroke-linecap="round"/><circle cx="706" cy="700" r="140" fill="#fff"/><path d="M650 676c-12-36 10-56 42-56 32 0 58 24 56 58" fill="none" stroke="#0078D7" stroke-width="28" stroke-linecap="round"/><path d="M748 676l42-26" fill="none" stroke="#00BFA5" stroke-width="24" stroke-linecap="round"/><rect x="626" y="704" width="146" height="86" rx="26" fill="#0078D7"/><circle cx="699" cy="744" r="13" fill="#fff"/><rect x="692" y="750" width="14" height="24" rx="5" fill="#fff"/></g><text x="430" y="184" font-family="Segoe UI, Microsoft YaHei UI, Arial, sans-serif" font-size="112" font-weight="700" fill="#111827">Face Hello</text><text x="436" y="258" font-family="Segoe UI, Microsoft YaHei UI, Arial, sans-serif" font-size="38" font-weight="500" fill="#0078D7" letter-spacing="1.5">RGB WEBCAM FACE UNLOCK</text><text x="436" y="318" font-family="Segoe UI, Microsoft YaHei UI, Arial, sans-serif" font-size="32" fill="#6B7280">Ordinary camera · local recognition · Windows sign-in</text></svg>